<?xml version="1.0" encoding="UTF-8"?>
<svg id="Layer_1" data-name="Layer 1" xmlns="http://www.w3.org/2000/svg" viewBox="0 0 158.92 155">
  <defs>
    <style>
      .cls-1 {
        fill: #d80621;
      }
    </style>
  </defs>
  <path class="cls-1" d="M102.51,69.39l-4.55-8.67-4.55-8.67-4.55-8.67-4.55,8.67,4.55,8.67-4.55,8.67-4.55-8.67-4.55,8.67,4.55,8.67-4.55,8.67,4.55,8.67-4.55,8.67-4.55-8.67,4.55-8.67-4.55-8.67,4.55-8.67-4.55-8.67,4.55-8.67,4.55,8.67,4.55-8.67-4.55-8.67,4.55-8.67-4.55-8.67-4.55,8.67-4.55,8.67-4.55-8.67-4.55,8.67,4.55,8.67-4.55,8.67,4.55,8.67-4.55,8.67-4.55-8.67-4.55,8.67,4.55,8.67,4.55,8.67,4.55,8.67,4.55,8.67,4.55,8.67,4.55,8.67,4.55-8.67,4.55-8.67,4.55-8.67,4.55-8.67,4.55-8.67,4.55-8.67-4.55-8.67ZM88.86,95.41l-4.55-8.67,4.55-8.67,4.55,8.67-4.55,8.67Z"/>
  <polygon class="cls-1" points="57 52.04 52.45 60.72 57 69.39 61.56 60.72 57 52.04"/>
  <polygon class="cls-1" points="75.21 17.35 70.66 8.67 66.11 17.35 70.66 26.02 75.21 17.35"/>
  <polygon class="cls-1" points="57 34.7 52.45 26.02 47.9 34.7 52.45 43.37 57 34.7"/>
  <polygon class="cls-1" points="66.11 17.35 61.56 8.67 57 17.35 61.56 26.02 66.11 17.35"/>
  <polygon class="cls-1" points="38.8 34.7 43.35 43.37 47.9 34.7 43.35 26.02 38.8 34.7"/>
  <polygon class="cls-1" points="52.45 8.67 47.9 0 43.35 8.67 47.9 17.35 52.45 8.67"/>
</svg>