<?xml version="1.0" encoding="UTF-8" standalone="no"?>
<svg
   id="Layer_1"
   data-name="Layer 1"
   viewBox="-20 -5 445.74168 144.57177"
   version="1.1"
   sodipodi:docname="ReSolve_v4_Logo_transparent_navy_red_border.svg"
   inkscape:version="1.3.2 (091e20ef0f, 2023-11-25)"
   width="415.74295"
   height="134.842"
   xmlns:inkscape="http://www.inkscape.org/namespaces/inkscape"
   xmlns:sodipodi="http://sodipodi.sourceforge.net/DTD/sodipodi-0.dtd"
   xmlns="http://www.w3.org/2000/svg"
   xmlns:svg="http://www.w3.org/2000/svg">
  <sodipodi:namedview
     id="namedview15"
     pagecolor="#ffffff"
     bordercolor="#000000"
     borderopacity="0.25"
     inkscape:showpageshadow="2"
     inkscape:pageopacity="0.0"
     inkscape:pagecheckerboard="0"
     inkscape:deskcolor="#d1d1d1"
     inkscape:zoom="2.1208385"
     inkscape:cx="202.51424"
     inkscape:cy="66.247383"
     inkscape:window-width="2455"
     inkscape:window-height="1326"
     inkscape:window-x="552"
     inkscape:window-y="2"
     inkscape:window-maximized="0"
     inkscape:current-layer="Layer_1"
     showgrid="false" />
  <defs
     id="defs1">
    <style
       id="style1">
      .cls-1 {
        fill: #041e41;
      }

      .cls-2 {
        fill: #d80621;
      }
    </style>
  </defs>
  <g
     id="g10"
     transform="translate(-8)">
    <g
       id="g4">
      <rect
         class="cls-2"
         x="188.46001"
         y="70.410004"
         width="10.58"
         height="10.58"
         rx="5.29"
         ry="5.29"
         id="rect1" />
      <rect
         class="cls-2"
         x="188.46001"
         y="91.919998"
         width="10.58"
         height="10.58"
         rx="5.29"
         ry="5.29"
         id="rect2" />
      <rect
         class="cls-2"
         x="209.38"
         y="70.410004"
         width="10.58"
         height="10.58"
         rx="5.29"
         ry="5.29"
         id="rect3" />
      <rect
         class="cls-2"
         x="209.38"
         y="91.919998"
         width="10.58"
         height="10.58"
         rx="5.29"
         ry="5.29"
         id="rect4" />
    </g>
    <g
       id="g9">
      <path
         class="cls-1"
         d="m 131.35,79.03 c 3.16,-3.09 3.82,-6.91 3.82,-10 0,-5.44 -2.21,-8.97 -4.26,-10.95 -2.35,-2.21 -6.25,-4.26 -12.5,-4.26 h -17.2 v 49.04 h 11.32 V 83.52 l 13.23,19.34 h 13.82 L 124.51,82.79 c 2.72,-0.66 5.15,-2.13 6.84,-3.75 z m -9.49,-5.07 c -1.91,1.91 -4.71,2.13 -6.76,2.13 h -2.57 V 62.64 h 2.65 c 1.47,0 4.41,0.15 6.25,1.54 0.96,0.74 2.28,2.21 2.28,5 0,2.43 -1.03,3.97 -1.84,4.78 z"
         id="path4" />
      <path
         class="cls-1"
         d="m 160.53,68.96 c -3.68,0 -8.6,0.74 -12.57,4.71 -3.31,3.38 -5,8.23 -5,12.94 0,5.44 2.06,9.78 4.93,12.65 3.82,3.82 8.16,4.71 13.09,4.71 3.68,0 7.2,-0.52 10.37,-2.43 1.91,-1.18 4.85,-3.6 6.32,-8.23 l -10,-1.03 c -0.88,1.84 -2.13,2.65 -2.28,2.72 -1.1,0.66 -2.72,0.96 -4.26,0.96 -1.54,0 -3.82,-0.29 -5.44,-2.06 -1.32,-1.47 -1.99,-3.82 -1.99,-5.59 h 24.48 v -1.1 c 0,-4.04 -0.74,-9.19 -4.63,-13.31 -4.04,-4.26 -9.34,-4.93 -13.01,-4.93 z m -6.47,13.01 c 0.29,-1.47 1.03,-2.65 1.84,-3.53 1.03,-1.03 2.65,-2.13 5.37,-2.13 2.13,0 3.82,0.74 5,1.84 1.54,1.47 2.06,3.53 2.13,3.82 z"
         id="path5" />
      <g
         id="g8">
        <polygon
           class="cls-1"
           points="368.74,70.06 357.12,70.06 348.81,87.63 340.5,70.06 328.89,70.06 348.81,108.57 "
           id="polygon5" />
        <path
           class="cls-1"
           d="m 252.72,73.96 -3.68,-1.4 c -3.31,-1.25 -5,-1.69 -6.18,-2.79 -0.74,-0.66 -1.1,-1.54 -1.1,-2.72 0,-1.25 0.51,-2.35 1.25,-3.09 1.32,-1.47 3.24,-1.69 4.78,-1.69 1.4,0 4.56,0.22 8.23,3.53 l 5.07,-8.23 c -5.73,-4.26 -11.18,-4.85 -14.56,-4.85 -4.56,0 -8.68,0.96 -12.13,4.48 -2.94,3.01 -4.26,6.69 -4.26,11.03 0,2.35 0.37,5.81 2.94,8.53 1.91,2.06 4.56,3.09 6.84,3.9 l 4.04,1.4 c 1.4,0.51 4.41,1.62 5.73,2.72 1.03,0.88 1.69,1.91 1.69,3.53 0,1.84 -0.81,3.16 -1.76,3.97 -1.62,1.4 -3.68,1.69 -5.15,1.69 -2.28,0 -4.26,-0.59 -6.18,-1.76 -1.32,-0.81 -3.31,-2.5 -4.56,-3.75 l -5.88,8.09 c 1.84,1.84 4.71,4.12 7.2,5.37 3.09,1.54 6.18,2.06 9.7,2.06 3.24,0 9.56,-0.44 13.9,-5 2.57,-2.65 4.34,-7.06 4.34,-12.13 0,-2.87 -0.74,-6.4 -3.6,-9.12 -1.91,-1.84 -4.56,-2.94 -6.69,-3.75 z"
           id="path6" />
        <path
           class="cls-1"
           d="m 287.57,68.96 c -6.4,0 -11.4,2.35 -14.34,5.29 -3.31,3.31 -4.93,8.01 -4.93,12.2 0,4.19 1.62,8.9 4.93,12.2 2.94,2.94 7.94,5.29 14.34,5.29 6.4,0 11.4,-2.35 14.34,-5.29 3.31,-3.31 4.93,-8.01 4.93,-12.2 0,-4.19 -1.62,-8.9 -4.93,-12.2 -2.94,-2.94 -7.94,-5.29 -14.34,-5.29 z m 5.96,23.67 c -1.54,1.54 -3.53,2.35 -5.88,2.35 -2.79,0 -4.71,-1.03 -6.03,-2.35 -1.25,-1.25 -2.43,-3.16 -2.43,-6.18 0,-2.65 0.88,-4.63 2.43,-6.18 1.54,-1.54 3.53,-2.35 5.95,-2.35 2.42,0 4.41,0.81 5.96,2.35 1.54,1.54 2.43,3.53 2.43,6.18 0,2.65 -0.88,4.63 -2.43,6.18 z"
           id="path7" />
        <rect
           class="cls-1"
           x="313.73999"
           y="49.25"
           width="10.59"
           height="53.599998"
           id="rect7" />
        <path
           class="cls-1"
           d="m 405.5,87.19 c 0,-4.04 -0.74,-9.19 -4.63,-13.31 -4.04,-4.26 -9.34,-4.93 -13.01,-4.93 -3.67,0 -8.6,0.74 -12.57,4.71 -3.31,3.38 -5,8.23 -5,12.94 0,5.44 2.06,9.78 4.93,12.65 3.82,3.82 8.16,4.71 13.09,4.71 3.68,0 7.21,-0.52 10.37,-2.43 1.91,-1.18 4.85,-3.6 6.32,-8.23 l -10,-1.03 c -0.88,1.84 -2.13,2.65 -2.28,2.72 -1.1,0.66 -2.72,0.96 -4.26,0.96 -1.54,0 -3.82,-0.29 -5.44,-2.06 -1.32,-1.47 -1.99,-3.82 -1.99,-5.59 h 24.48 v -1.1 z m -24.12,-5.22 c 0.29,-1.47 1.03,-2.65 1.84,-3.53 1.03,-1.03 2.65,-2.13 5.37,-2.13 2.13,0 3.82,0.74 5,1.84 1.54,1.47 2.06,3.53 2.13,3.82 z"
           id="path8" />
      </g>
    </g>
  </g>
  <g
     id="g15"
     transform="translate(8)">
    <path
       class="cls-2"
       d="M 64.4,70.14 59.8,61.37 55.2,52.6 50.6,43.83 46,52.6 l 4.6,8.77 -4.6,8.77 -4.6,-8.77 -4.6,8.77 4.6,8.77 -4.6,8.77 4.6,8.77 -4.6,8.77 -4.6,-8.77 4.6,-8.77 -4.6,-8.77 4.6,-8.77 -4.6,-8.77 4.6,-8.77 4.6,8.77 4.6,-8.77 -4.6,-8.77 4.6,-8.77 -4.6,-8.77 -4.6,8.77 -4.6,8.77 -4.6,-8.77 -4.6,8.77 4.6,8.77 -4.6,8.77 4.6,8.77 -4.6,8.77 -4.6,-8.77 -4.6,8.77 4.6,8.77 4.6,8.77 4.6,8.77 4.6,8.77 4.6,8.77 4.6,8.77 4.6,-8.77 4.6,-8.77 4.6,-8.77 4.6,-8.77 4.6,-8.77 4.6,-8.77 z M 50.6,96.45 46,87.68 l 4.6,-8.77 4.6,8.77 z"
       id="path10" />
    <polygon
       class="cls-2"
       points="18.4,52.61 13.8,61.38 18.4,70.14 23,61.38 "
       id="polygon10" />
    <polygon
       class="cls-2"
       points="36.8,17.54 32.2,8.77 27.6,17.54 32.2,26.3 "
       id="polygon11" />
    <polygon
       class="cls-2"
       points="18.4,35.07 13.8,26.3 9.2,35.07 13.8,43.84 "
       id="polygon12" />
    <polygon
       class="cls-2"
       points="27.6,17.54 23,8.77 18.4,17.54 23,26.3 "
       id="polygon13" />
    <polygon
       class="cls-2"
       points="0,35.07 4.6,43.84 9.2,35.07 4.6,26.3 "
       id="polygon14" />
    <polygon
       class="cls-2"
       points="13.8,8.77 9.2,0 4.6,8.77 9.2,17.54 "
       id="polygon15" />
  </g>
</svg>
